<svg width="24" height="24" viewBox="0 0 24 24" fill="none" xmlns="http://www.w3.org/2000/svg">
<path d="M12 21.75C17.3848 21.75 21.75 17.3848 21.75 12C21.75 6.61522 17.3848 2.25 12 2.25C6.61522 2.25 2.25 6.61522 2.25 12C2.25 17.3848 6.61522 21.75 12 21.75Z" stroke="white" stroke-width="1.2" stroke-linecap="square" stroke-linejoin="round"/>
<path d="M12 11.25C13.6569 11.25 15 9.90685 15 8.25C15 6.59315 13.6569 5.25 12 5.25C10.3431 5.25 9 6.59315 9 8.25C9 9.90685 10.3431 11.25 12 11.25Z" stroke="white" stroke-width="1.2" stroke-linecap="square" stroke-linejoin="round"/>
<path d="M18 19.5V17.25C18 14.76 15.99 12.75 13.5 12.75H10.5C8.01 12.75 6 14.76 6 17.25V19.5" stroke="white" stroke-width="1.2" stroke-linecap="round" stroke-linejoin="round"/>
</svg>
